<svg width="26" height="26" viewBox="0 0 26 26" fill="none" xmlns="http://www.w3.org/2000/svg">
<path d="M13.2793 24.2194C19.5437 24.2194 24.622 19.1417 24.622 12.878C24.622 6.61424 19.5437 1.5365 13.2793 1.5365C7.01484 1.5365 1.93652 6.61424 1.93652 12.878C1.93652 19.1417 7.01484 24.2194 13.2793 24.2194Z" stroke="#A3A3A3" stroke-width="2" stroke-linecap="round" stroke-linejoin="round"/>
<path d="M9.02624 11.9329C9.8093 11.9329 10.4441 11.2982 10.4441 10.5152C10.4441 9.73225 9.8093 9.09753 9.02624 9.09753C8.24319 9.09753 7.6084 9.73225 7.6084 10.5152C7.6084 11.2982 8.24319 11.9329 9.02624 11.9329Z" fill="#A3A3A3"/>
<path d="M17.5331 11.9329C18.3161 11.9329 18.9509 11.2982 18.9509 10.5152C18.9509 9.73225 18.3161 9.09753 17.5331 9.09753C16.75 9.09753 16.1152 9.73225 16.1152 10.5152C16.1152 11.2982 16.75 11.9329 17.5331 11.9329Z" fill="#A3A3A3"/>
<path d="M18.1946 15.7134C17.695 16.5741 16.9779 17.2886 16.1153 17.7852C15.2527 18.2819 14.2748 18.5433 13.2794 18.5433C12.2841 18.5433 11.3062 18.2819 10.4436 17.7852C9.58096 17.2886 8.86394 16.5741 8.36426 15.7134" stroke="#A3A3A3" stroke-width="2" stroke-linecap="round" stroke-linejoin="round"/>
</svg>
