<svg width="25" height="25" viewBox="0 0 25 25" fill="none" xmlns="http://www.w3.org/2000/svg">
<path d="M21.0938 8.91602V20.3125C21.0938 20.5197 21.0114 20.7184 20.8649 20.8649C20.7184 21.0114 20.5197 21.0938 20.3125 21.0938H4.6875C4.4803 21.0938 4.28159 21.0114 4.13507 20.8649C3.98856 20.7184 3.90625 20.5197 3.90625 20.3125V4.6875C3.90625 4.4803 3.98856 4.28159 4.13507 4.13508C4.28159 3.98856 4.4803 3.90625 4.6875 3.90625H16.084C16.1854 3.9059 16.286 3.92555 16.3798 3.9641C16.4736 4.00264 16.5589 4.05931 16.6309 4.13086L20.8691 8.36915C20.9407 8.44106 20.9974 8.52637 21.0359 8.62021C21.0744 8.71405 21.0941 8.81457 21.0938 8.91602V8.91602Z" stroke="#242424" stroke-width="1.5" stroke-linecap="round" stroke-linejoin="round"/>
<path d="M7.8125 21.0938V14.8438C7.8125 14.6365 7.89481 14.4378 8.04132 14.2913C8.18784 14.1448 8.38655 14.0625 8.59375 14.0625H16.4062C16.6135 14.0625 16.8122 14.1448 16.9587 14.2913C17.1052 14.4378 17.1875 14.6365 17.1875 14.8438V21.0938" stroke="#242424" stroke-width="1.5" stroke-linecap="round" stroke-linejoin="round"/>
<path d="M14.8438 7.03125H9.375" stroke="#242424" stroke-width="1.5" stroke-linecap="round" stroke-linejoin="round"/>
</svg>
