<svg width="25" height="26" viewBox="0 0 25 26" fill="none" xmlns="http://www.w3.org/2000/svg">
<path d="M6.24805 16.0713C7.97394 16.0713 9.37305 14.6722 9.37305 12.9463C9.37305 11.2204 7.97394 9.82129 6.24805 9.82129C4.52216 9.82129 3.12305 11.2204 3.12305 12.9463C3.12305 14.6722 4.52216 16.0713 6.24805 16.0713Z" stroke="#242424" stroke-width="1.5" stroke-linecap="round" stroke-linejoin="round"/>
<path d="M17.1875 23.1025C18.9134 23.1025 20.3125 21.7034 20.3125 19.9775C20.3125 18.2516 18.9134 16.8525 17.1875 16.8525C15.4616 16.8525 14.0625 18.2516 14.0625 19.9775C14.0625 21.7034 15.4616 23.1025 17.1875 23.1025Z" stroke="#242424" stroke-width="1.5" stroke-linecap="round" stroke-linejoin="round"/>
<path d="M17.1875 9.04004C18.9134 9.04004 20.3125 7.64093 20.3125 5.91504C20.3125 4.18915 18.9134 2.79004 17.1875 2.79004C15.4616 2.79004 14.0625 4.18915 14.0625 5.91504C14.0625 7.64093 15.4616 9.04004 17.1875 9.04004Z" stroke="#242424" stroke-width="1.5" stroke-linecap="round" stroke-linejoin="round"/>
<path d="M14.5605 7.60437L8.87695 11.2567" stroke="#242424" stroke-width="1.5" stroke-linecap="round" stroke-linejoin="round"/>
<path d="M8.87695 14.6356L14.5605 18.288" stroke="#242424" stroke-width="1.5" stroke-linecap="round" stroke-linejoin="round"/>
</svg>
