<svg width="30" height="30" viewBox="0 0 30 30" fill="none" xmlns="http://www.w3.org/2000/svg">
<path d="M5.625 16.3594V24.375C5.625 24.6236 5.72377 24.8621 5.89959 25.0379C6.0754 25.2137 6.31386 25.3125 6.5625 25.3125H23.4375C23.6861 25.3125 23.9246 25.2137 24.1004 25.0379C24.2762 24.8621 24.375 24.6236 24.375 24.375V16.3594" stroke="#242424" stroke-width="1.5" stroke-linecap="round" stroke-linejoin="round"/>
<path d="M6.32812 4.6875H23.6719C23.8753 4.68917 24.0727 4.75613 24.2352 4.87849C24.3976 5.00086 24.5165 5.17217 24.5742 5.36719L26.25 11.25H3.75L5.42578 5.36719C5.48353 5.17217 5.60238 5.00086 5.76483 4.87849C5.92729 4.75613 6.12475 4.68917 6.32812 4.6875V4.6875Z" stroke="#242424" stroke-width="1.5" stroke-linecap="round" stroke-linejoin="round"/>
<path d="M11.25 11.25V13.125C11.25 14.1196 10.8549 15.0734 10.1517 15.7766C9.44839 16.4799 8.49456 16.875 7.5 16.875C6.50544 16.875 5.55161 16.4799 4.84835 15.7766C4.14509 15.0734 3.75 14.1196 3.75 13.125V11.25" stroke="#242424" stroke-width="1.5" stroke-linecap="round" stroke-linejoin="round"/>
<path d="M18.75 11.25V13.125C18.75 14.1196 18.3549 15.0734 17.6516 15.7766C16.9484 16.4799 15.9946 16.875 15 16.875C14.0054 16.875 13.0516 16.4799 12.3483 15.7766C11.6451 15.0734 11.25 14.1196 11.25 13.125V11.25" stroke="#242424" stroke-width="1.5" stroke-linecap="round" stroke-linejoin="round"/>
<path d="M26.25 11.25V13.125C26.25 14.1196 25.8549 15.0734 25.1516 15.7766C24.4484 16.4799 23.4946 16.875 22.5 16.875C21.5054 16.875 20.5516 16.4799 19.8484 15.7766C19.1451 15.0734 18.75 14.1196 18.75 13.125V11.25" stroke="#242424" stroke-width="1.5" stroke-linecap="round" stroke-linejoin="round"/>
</svg>
